<?xml version="1.0" standalone="no"?>
<!DOCTYPE svg PUBLIC "-//W3C//DTD SVG 20010904//EN"
 "http://www.w3.org/TR/2001/REC-SVG-20010904/DTD/svg10.dtd">
<svg version="1.0" xmlns="http://www.w3.org/2000/svg"
 width="700.000000pt" height="700.000000pt" viewBox="0 0 700.000000 700.000000"
 preserveAspectRatio="xMidYMid meet">
<metadata>
Created by potrace 1.14, written by Peter Selinger 2001-2017
</metadata>
<g transform="translate(0.000000,700.000000) scale(0.100000,-0.100000)"
fill="#000000" stroke="none">
<path d="M2018 3870 c-116 -20 -221 -98 -271 -201 -105 -217 -14 -490 191
-570 87 -34 226 -33 304 3 176 81 265 283 213 483 -31 118 -93 198 -194 249
-42 22 -154 48 -186 45 -5 -1 -31 -5 -57 -9z m188 -71 c142 -53 225 -220 196
-390 -31 -178 -147 -280 -319 -280 -173 0 -295 115 -318 302 -14 111 25 227
101 304 83 83 221 108 340 64z"/>
<path d="M1200 3475 l0 -395 175 0 175 0 0 25 0 25 -145 0 -145 0 0 370 0 370
-30 0 -30 0 0 -395z"/>
<path d="M2632 3858 c1 -8 68 -186 148 -396 l145 -382 32 0 c29 0 33 4 51 53
11 28 73 189 137 357 64 168 123 322 131 343 l13 37 -32 0 -32 0 -104 -278
c-57 -152 -117 -313 -134 -356 l-30 -79 -132 354 -133 354 -32 3 c-23 3 -31 0
-28 -10z"/>
<path d="M3480 3475 l0 -395 200 0 200 0 0 25 0 25 -170 0 -170 0 0 160 0 160
155 0 155 0 0 25 0 25 -155 0 -155 0 0 160 0 160 170 0 170 0 0 25 0 25 -200
0 -200 0 0 -395z"/>
<path d="M4100 3475 l0 -395 175 0 175 0 0 25 0 25 -145 0 -145 0 0 370 0 370
-30 0 -30 0 0 -395z"/>
<path d="M4630 3475 l0 -395 205 0 205 0 0 25 0 25 -175 0 -175 0 0 160 0 160
155 0 155 0 0 25 0 25 -155 0 -155 0 0 160 0 160 176 0 175 0 -3 23 c-3 22 -4
22 -205 25 l-203 2 0 -395z"/>
<path d="M5200 3859 c0 -8 196 -531 285 -761 5 -12 18 -18 39 -18 l31 0 148
388 c81 213 147 390 147 395 0 4 -13 7 -29 7 -28 0 -29 -3 -146 -312 -65 -172
-126 -333 -135 -357 l-17 -43 -133 356 c-132 352 -134 356 -162 356 -15 0 -28
-5 -28 -11z"/>
<path d="M1200 2740 l0 -50 1350 0 1350 0 0 50 0 50 -1350 0 -1350 0 0 -50z"/>
</g>
</svg>
